<svg id="Layer_1" data-name="Layer 1" xmlns="http://www.w3.org/2000/svg" viewBox="0 0 1000 1000"><defs><style>.cls-1{fill:#ff5345;}.cls-2{fill:#67acd5;}.cls-3{fill:#a3d86b;}.cls-4{fill:#516d97;}.cls-5{fill:#5791d1;}.cls-6{fill:#40455a;}</style></defs><ellipse class="cls-1" cx="500" cy="51.72" rx="38.46" ry="34.48"/><path class="cls-2" d="M250,327.59V293.1c0-58.62,50-103.44,115.38-103.44H634.62C700,189.66,750,234.48,750,293.1v34.49C750,386.21,700,431,634.62,431H365.38C300,431,250,386.21,250,327.59Z"/><ellipse class="cls-3" cx="384.62" cy="310.34" rx="57.69" ry="51.72"/><ellipse class="cls-3" cx="615.38" cy="310.34" rx="57.69" ry="51.72"/><path class="cls-4" d="M557.69,431V534.48H442.31V431Z"/><path class="cls-4" d="M134.62,913.79V741.38H115.38a101.81,101.81,0,0,1-57.69-17.24V913.79m807.69,0V741.38h19.24a101.81,101.81,0,0,0,57.69-17.24V913.79"/><path class="cls-5" d="M115.38,569c-53.84,0-96.15,37.93-96.15,86.2s42.31,86.21,96.15,86.21h96.16V569Zm769.24,0c53.84,0,96.15,37.93,96.15,86.2s-42.31,86.21-96.15,86.21H788.46V569Z"/><path class="cls-2" d="M211.54,879.31V569c0-20.69,15.38-34.49,38.46-34.49H750c23.08,0,38.46,13.8,38.46,34.49V879.31c0,20.69-15.38,34.48-38.46,34.48H250C226.92,913.79,211.54,900,211.54,879.31Z"/><path class="cls-6" d="M500,206.9c-11.54,0-19.23-6.9-19.23-17.24V86.21C480.77,75.86,488.46,69,500,69s19.23,6.89,19.23,17.24V189.66C519.23,200,511.54,206.9,500,206.9Z"/><path class="cls-6" d="M500,103.45c-30.77,0-57.69-24.14-57.69-51.73S469.23,0,500,0s57.69,24.14,57.69,51.72S530.77,103.45,500,103.45Zm0-69c-11.54,0-19.23,6.9-19.23,17.24S488.46,69,500,69s19.23-6.9,19.23-17.25S511.54,34.48,500,34.48ZM384.62,379.31c-42.31,0-76.93-31-76.93-69s34.62-69,76.93-69,76.92,31,76.92,69S426.92,379.31,384.62,379.31Zm0-103.45c-23.08,0-38.47,13.8-38.47,34.48s15.39,34.49,38.47,34.49,38.46-13.8,38.46-34.49S407.69,275.86,384.62,275.86ZM615.38,379.31c-42.3,0-76.92-31-76.92-69s34.62-69,76.92-69,76.93,31,76.93,69S657.69,379.31,615.38,379.31Zm0-103.45c-23.07,0-38.46,13.8-38.46,34.48s15.39,34.49,38.46,34.49,38.47-13.8,38.47-34.49S638.46,275.86,615.38,275.86Z"/><path class="cls-6" d="M634.62,448.28H365.38c-73.07,0-134.61-55.18-134.61-120.69V293.1c0-65.51,61.54-120.69,134.61-120.69H634.62c73.07,0,134.61,55.18,134.61,120.69v34.49C769.23,393.1,707.69,448.28,634.62,448.28ZM365.38,206.9c-53.84,0-96.15,37.93-96.15,86.2v34.49c0,48.27,42.31,86.2,96.15,86.2H634.62c53.84,0,96.15-37.93,96.15-86.2V293.1c0-48.27-42.31-86.2-96.15-86.2Z"/><path class="cls-6" d="M557.69,551.72H442.31c-11.54,0-19.23-6.89-19.23-17.24V431c0-10.34,7.69-17.24,19.23-17.24H557.69c11.54,0,19.23,6.9,19.23,17.24V534.48C576.92,544.83,569.23,551.72,557.69,551.72Zm-96.15-34.48h76.92v-69H461.54Z"/><path class="cls-6" d="M750,931H250c-30.77,0-57.69-24.13-57.69-51.72V569c0-27.59,26.92-51.73,57.69-51.73H750c30.77,0,57.69,24.14,57.69,51.73V879.31C807.69,906.9,780.77,931,750,931ZM250,551.72c-11.54,0-19.23,6.9-19.23,17.25V879.31c0,10.35,7.69,17.24,19.23,17.24H750c11.54,0,19.23-6.89,19.23-17.24V569c0-10.35-7.69-17.25-19.23-17.25ZM173.08,1000c-11.54,0-19.23-6.9-19.23-17.24,0-27.59-26.93-51.73-57.7-51.73s-57.69,24.14-57.69,51.73c0,10.34-7.69,17.24-19.23,17.24S0,993.1,0,982.76c0-48.28,42.31-86.21,96.15-86.21s96.16,37.93,96.16,86.21C192.31,993.1,184.62,1000,173.08,1000Z"/><path class="cls-6" d="M211.54,758.62H115.38C50,758.62,0,713.79,0,655.17S50,551.72,115.38,551.72h96.16c11.54,0,19.23,6.9,19.23,17.25V741.38C230.77,751.72,223.08,758.62,211.54,758.62ZM115.38,586.21c-42.3,0-76.92,31-76.92,69s34.62,69,76.92,69h76.93V586.21Z"/><path class="cls-6" d="M134.62,931c-11.54,0-19.24-6.89-19.24-17.24V758.62c-11.53,0-26.92-3.45-38.46-6.9V913.79c0,10.35-7.69,17.24-19.23,17.24s-19.23-6.89-19.23-17.24V724.14c0-6.9,3.85-13.8,11.54-13.8s15.38-3.44,19.23,0c15.39,10.35,30.77,13.8,46.15,13.8h19.24c11.53,0,19.23,6.89,19.23,17.24V913.79C153.85,924.14,146.15,931,134.62,931Zm846.15,69c-11.54,0-19.23-6.9-19.23-17.24,0-27.59-26.92-51.73-57.69-51.73s-57.7,24.14-57.7,51.73c0,10.34-7.69,17.24-19.23,17.24s-19.23-6.9-19.23-17.24c0-48.28,42.31-86.21,96.16-86.21S1000,934.48,1000,982.76C1000,993.1,992.31,1000,980.77,1000ZM884.62,758.62H788.46c-11.54,0-19.23-6.9-19.23-17.24V569c0-10.35,7.69-17.25,19.23-17.25h96.16C950,551.72,1000,596.55,1000,655.17S950,758.62,884.62,758.62Zm-76.93-34.48h76.93c42.3,0,76.92-31,76.92-69s-34.62-69-76.92-69H807.69Z"/><path class="cls-6" d="M942.31,931c-11.54,0-19.23-6.89-19.23-17.24V751.72c-11.54,3.45-26.93,6.9-38.46,6.9V913.79c0,10.35-7.7,17.24-19.24,17.24s-19.23-6.89-19.23-17.24V741.38c0-10.35,7.7-17.24,19.23-17.24h19.24c15.38,0,30.76-3.45,46.15-13.8,7.69-3.44,15.38-3.44,19.23,0,7.69,3.45,11.54,10.35,11.54,13.8V913.79C961.54,924.14,953.85,931,942.31,931Z"/><path class="cls-6" d="M384.21,762.43c0,.81-.62,1.37-1.87,1.69-1.51.36-6.16.54-14,.54q-10.74,0-13.82-.54a3.86,3.86,0,0,1-3.23-3q-2.55-9.71-4-10.37-1.2-.48-20.13-.48-12.78,0-13.6.61-1.28,1.08-2.85,7.21-1.44,5.58-3.46,6.06-2.55.54-17.13.54-11.49,0-11.49-2,0-1.74,17-43,18.41-44.65,20-49.1c.6-1.71,1.3-2.56,2.1-2.56q2,0,6.27.34t6.35.33c1.35,0,3.34-.07,6-.23s4.6-.24,5.9-.24c.95,0,1.83.74,2.63,2.22q3.67,7.08,21.48,48.5Q384.21,760.62,384.21,762.43ZM331,701.08a139.09,139.09,0,0,0-5.33,12.86c-2.7,7-4.06,11.11-4.06,12.33,0,.81,1.51,1.25,4.51,1.34,1.55.1,4.11.14,7.66.14q5,0,5.49-1.08a2.36,2.36,0,0,0,.15-.94q0-2.22-3.46-12.26Q332.54,703.78,331,701.08Z"/><path class="cls-6" d="M433.46,722.16c0,1.75-1.08,2.63-3.23,2.63-1,0-2.34-.06-4.17-.17s-3.19-.17-4.09-.17q-6.24,0-8.49,1.75c-1.5,1.17-2.25,3.52-2.25,7.07,0,1.93,0,4.86.11,8.79s.11,6.86.11,8.79q0,1.95.3,5.83t.3,5.75c0,1.08-.82,1.69-2.48,1.82q-3.6.27-11,.27c-4.76,0-8.56-.13-11.42-.4-1.65-.18-2.48-.92-2.48-2.23q0-5.39.08-16.13t.07-16.13q0-15.82-3.23-26.06a4.32,4.32,0,0,1-.15-1,1.36,1.36,0,0,1,1.13-1.35c2.75-.27,6.79-.76,12.09-1.48q11.88-2.09,12.25-2.09c.9,0,1.48,1.42,1.73,4.25s.7,4.24,1.35,4.24q-1.05,0,6.16-3.54a31.62,31.62,0,0,1,13.9-3.53c2.8,0,4.2.54,4.2,1.61a47.34,47.34,0,0,1-.45,5.53q-.45,3.84-.52,5.52c0,1.3,0,3,.07,5.19C433.41,719.55,433.46,721.31,433.46,722.16Z"/><path class="cls-6" d="M503.37,727.55q0,6.8-4.88,7.74-.84.13-15.55,1.48-8.87.88-26.45,2.09,1,4.38,6.39,6.67a24.69,24.69,0,0,0,9.92,1.88,30.89,30.89,0,0,0,13.44-3.23L492,741q1.57.67,5.3,6.87T501,755.7c0,.31-.38.83-1.13,1.55q-9.16,8.82-28.47,8.82-17.88,0-28.85-9.36-11.26-9.5-11.27-25.39,0-15.5,10.07-25.39,10.37-10.24,27.49-10.24a34.49,34.49,0,0,1,24.49,9.43Q503.37,714.56,503.37,727.55Zm-26.29-4.11a9.84,9.84,0,0,0-3.31-7.34,11,11,0,0,0-7.89-3.17,9.87,9.87,0,0,0-7.81,3.57,11.48,11.48,0,0,0-2.85,7.75c0,1.21.7,1.81,2.1,1.81a146.74,146.74,0,0,0,17.28-1.54C476.25,724.29,477.08,723.93,477.08,723.44Z"/><path class="cls-6" d="M578.61,762.16c0,1.22-.7,1.91-2.1,2.09s-5.06.27-11,.27a95.79,95.79,0,0,1-11.72-.4,2.5,2.5,0,0,1-2.25-2.76q0-3.17.22-9.57t.23-9.63q0-2.49-.15-7.44t-.15-7.44q0-9.22-8.94-9.23a14,14,0,0,0-6.84,2.29c-2.8,1.71-4.21,3.39-4.21,5v36.37a2.29,2.29,0,0,1-2.32,2.49q-2.64.27-10.75.27a97.47,97.47,0,0,1-11.41-.4c-1.56-.23-2.33-1-2.33-2.23q0-5.25.07-15.82t.08-15.9q0-16.77-2.93-26.33a4.32,4.32,0,0,1-.15-1,1.48,1.48,0,0,1,1.12-1.48q4.74-.48,12.62-1.48,12-2.1,13.45-2.09c.55,0,1,1.51,1.28,4.54s.72,4.55,1.27,4.55q-.83,0,8.08-4.68t15.59-4.68q9.54,0,15.92,4a14.63,14.63,0,0,1,7.14,12.93V736q0,4.37.07,13.09T578.61,762.16Z"/><path class="cls-6" d="M683.07,762.43c0,.81-.62,1.37-1.88,1.69q-2.25.54-14,.54-10.74,0-13.82-.54a3.86,3.86,0,0,1-3.23-3q-2.55-9.71-4-10.37-1.2-.48-20.13-.48-12.78,0-13.6.61-1.28,1.08-2.86,7.21-1.43,5.58-3.45,6.06-2.55.54-17.13.54-11.49,0-11.49-2,0-1.74,17-43,18.4-44.65,20-49.1c.6-1.71,1.3-2.56,2.1-2.56q2,0,6.27.34t6.35.33c1.35,0,3.34-.07,6-.23s4.6-.24,5.9-.24c.95,0,1.83.74,2.63,2.22q3.67,7.08,21.48,48.5Q683.07,760.62,683.07,762.43Zm-53.26-61.35a139.09,139.09,0,0,0-5.33,12.86c-2.71,7-4.06,11.11-4.06,12.33,0,.81,1.5,1.25,4.51,1.34,1.55.1,4.11.14,7.66.14,3.31,0,5.13-.36,5.48-1.08a2.36,2.36,0,0,0,.15-.94q0-2.22-3.45-12.26Q631.4,703.78,629.81,701.08Z"/><path class="cls-6" d="M713.54,714.35q0,7.93.45,23.91t.45,23.9c0,.9-.22,1.46-.67,1.69-.11,0-.76.13-2,.27a124.58,124.58,0,0,1-13.07.54q-11,0-14-.54c-1.45-.27-2.18-1-2.18-2.09q0,1.08.68-11.85,1.35-27.28,1.35-35.83,0-7.22-.53-21.62t-.52-21.62c0-1,.57-1.48,1.72-1.48,1.56,0,3.9.06,7,.2s5.47.2,7,.2,3.85-.07,6.88-.2,5.32-.2,6.87-.2,2.18.49,2.18,1.48q0,7.2-.87,21.62T713.54,714.35Z"/></svg>