<svg height="512pt" viewBox="-62 0 512 512" width="512pt" xmlns="http://www.w3.org/2000/svg"><path d="m113.996094 35.457031h-14.777344c-12.441406 0-22.5625 10.121094-22.5625 22.5625v27.105469c0 12.441406 10.121094 22.5625 22.5625 22.5625h14.777344c4.152344 0 7.519531-3.367188 7.519531-7.519531v-57.1875c0-4.15625-3.367187-7.523438-7.519531-7.523438zm0 0" fill="#ffe55a"/><path d="m289.269531 35.457031h-14.773437c-4.15625 0-7.523438 3.367188-7.523438 7.523438v57.1875c0 4.152343 3.367188 7.519531 7.523438 7.519531h14.773437c12.441407 0 22.566407-10.121094 22.566407-22.5625v-27.105469c0-12.441406-10.125-22.5625-22.566407-22.5625zm0 0" fill="#ffe55a"/><path d="m113.996094 81.792969h-14.777344c-12.441406 0-22.5625-10.121094-22.5625-22.5625v25.894531c0 12.441406 10.121094 22.5625 22.5625 22.5625h14.777344c4.152344 0 7.519531-3.367188 7.519531-7.519531v-25.894531c0 4.152343-3.367187 7.519531-7.519531 7.519531zm0 0" fill="#ffd500"/><path d="m289.269531 81.792969h-14.773437c-4.15625 0-7.523438-3.367188-7.523438-7.519531v25.894531c0 4.152343 3.367188 7.519531 7.523438 7.519531h14.773437c12.441407 0 22.566407-10.121094 22.566407-22.5625v-25.894531c0 12.441406-10.125 22.5625-22.566407 22.5625zm0 0" fill="#ffd500"/><path d="m259.445312 0h-130.40625c-12.445312 0-22.566406 10.121094-22.566406 22.5625v96.503906c0 12.441406 10.121094 22.5625 22.566406 22.5625h130.40625c12.441407 0 22.566407-10.121094 22.566407-22.5625v-96.503906c0-12.441406-10.125-22.5625-22.566407-22.5625zm0 0" fill="#e6e2e6"/><path d="m259.445312 107.6875h-130.40625c-12.445312 0-22.566406-10.121094-22.566406-22.5625v33.941406c0 12.441406 10.121094 22.5625 22.566406 22.5625h130.40625c12.441407 0 22.566407-10.121094 22.566407-22.5625v-33.941406c0 12.441406-10.125 22.5625-22.566407 22.5625zm0 0" fill="#d8d1d7"/><path d="m156.792969 84.097656c-6.640625 0-12.042969-5.402344-12.042969-12.042968 0-6.640626 5.402344-12.046876 12.042969-12.046876s12.042969 5.40625 12.042969 12.046876c0 6.640624-5.402344 12.042968-12.042969 12.042968zm0 0" fill="#8c808a"/><path d="m231.691406 84.097656c-6.640625 0-12.042968-5.402344-12.042968-12.042968 0-6.640626 5.402343-12.046876 12.042968-12.046876s12.042969 5.40625 12.042969 12.046876c0 6.640624-5.402344 12.042968-12.042969 12.042968zm0 0" fill="#8c808a"/><path d="m233.429688 420.394531c-1.980469-1.410156-4.519532-1.777343-6.820313-.984375-10.40625 3.59375-21.292969 5.414063-32.363281 5.414063-11.070313 0-21.960938-1.820313-32.363282-5.414063-2.300781-.792968-4.839843-.429687-6.820312.984375-1.980469 1.410157-3.160156 3.691407-3.160156 6.125v43.136719c0 23.347656 18.996094 42.34375 42.34375 42.34375 23.34375 0 42.339844-18.996094 42.339844-42.34375v-43.136719c0-2.433593-1.175782-4.714843-3.15625-6.125zm0 0" fill="#7b7179"/><path d="m194.246094 478.847656c-23.347656 0-42.34375-18.996094-42.34375-42.34375v33.152344c0 23.347656 18.996094 42.34375 42.34375 42.34375 23.34375 0 42.339844-18.996094 42.339844-42.34375v-33.152344c0 23.347656-18.992188 42.34375-42.339844 42.34375zm0 0" fill="#726a71"/><path d="m39.089844 192.566406c-15.726563 0-28.519532 12.792969-28.519532 28.519532v115.308593c0 15.726563 12.792969 28.519531 28.519532 28.519531 15.726562 0 28.519531-12.792968 28.519531-28.519531v-115.308593c0-15.726563-12.792969-28.519532-28.519531-28.519532zm0 0" fill="#e6e2e6"/><path d="m39.089844 330.144531c-15.726563 0-28.519532-12.792969-28.519532-28.519531v34.769531c0 15.726563 12.792969 28.519531 28.519532 28.519531 15.726562 0 28.519531-12.796874 28.519531-28.519531v-34.769531c0 15.726562-12.792969 28.519531-28.519531 28.519531zm0 0" fill="#d8d1d7"/><path d="m39.089844 129.53125c-21.554688 0-39.089844 17.535156-39.089844 39.089844 0 21.554687 17.535156 39.089844 39.089844 39.089844 21.554687 0 39.089844-17.535157 39.089844-39.089844 0-21.554688-17.535157-39.089844-39.089844-39.089844zm0 0" fill="#cac0c9"/><path d="m39.089844 176.144531c-15.9375 0-29.671875-9.59375-35.75-23.308593-2.140625 4.832031-3.339844 10.167968-3.339844 15.785156 0 21.554687 17.535156 39.089844 39.089844 39.089844 21.554687 0 39.089844-17.535157 39.089844-39.089844 0-5.617188-1.199219-10.953125-3.339844-15.785156-6.078125 13.714843-19.808594 23.308593-35.75 23.308593zm0 0" fill="#bbb0ba"/><path d="m349.398438 192.566406c-15.722657 0-28.519532 12.792969-28.519532 28.519532v115.308593c0 15.726563 12.792969 28.519531 28.519532 28.519531 15.726562 0 28.519531-12.792968 28.519531-28.519531v-115.308593c0-15.726563-12.792969-28.519532-28.519531-28.519532zm0 0" fill="#e6e2e6"/><path d="m349.398438 330.144531c-15.722657 0-28.519532-12.792969-28.519532-28.519531v34.769531c0 15.726563 12.792969 28.519531 28.519532 28.519531 15.726562 0 28.519531-12.796874 28.519531-28.519531v-34.769531c0 15.726562-12.792969 28.519531-28.519531 28.519531zm0 0" fill="#d8d1d7"/><path d="m349.398438 129.53125c-21.554688 0-39.089844 17.535156-39.089844 39.089844 0 21.554687 17.535156 39.089844 39.089844 39.089844 21.554687 0 39.09375-17.535157 39.09375-39.089844 0-21.554688-17.539063-39.089844-39.09375-39.089844zm0 0" fill="#cac0c9"/><path d="m349.398438 176.144531c-15.9375 0-29.671876-9.59375-35.75-23.308593-2.140626 4.832031-3.339844 10.167968-3.339844 15.785156 0 21.554687 17.535156 39.089844 39.089844 39.089844 21.554687 0 39.09375-17.535157 39.09375-39.089844 0-5.617188-1.199219-10.953125-3.34375-15.785156-6.078126 13.714843-19.808594 23.308593-35.75 23.308593zm0 0" fill="#bbb0ba"/><path d="m370.398438 406.910156c-4.152344 0-7.519532-3.367187-7.519532-7.523437v-20.996094c0-7.433594-6.046875-13.476563-13.476562-13.476563-7.433594 0-13.480469 6.042969-13.480469 13.476563v20.996094c0 4.15625-3.367187 7.523437-7.519531 7.523437s-7.519532-3.367187-7.519532-7.523437v-20.996094c0-15.726563 12.792969-28.519531 28.519532-28.519531 15.722656 0 28.515625 12.792968 28.515625 28.519531v20.996094c0 4.15625-3.367188 7.523437-7.519531 7.523437zm0 0" fill="#8c808a"/><path d="m318.179688 136.367188c-5.621094-6.214844-13.652344-9.78125-22.035157-9.78125h-203.800781c-8.378906 0-16.410156 3.566406-22.035156 9.78125-5.621094 6.214843-8.367188 14.5625-7.527344 22.902343l17.863281 177.839844c2.835938 28.214844 15.980469 54.230469 37.007813 73.257813 21.03125 19.023437 48.234375 29.5 76.59375 29.5s55.558594-10.476563 76.589844-29.5c21.03125-19.027344 34.175781-45.042969 37.011718-73.257813l17.863282-177.839844c.835937-8.335937-1.90625-16.683593-7.53125-22.902343zm0 0" fill="#e6e2e6"/><path d="m279.640625 365.664062c-23.449219 21.210938-53.777344 32.890626-85.394531 32.890626-31.621094 0-61.945313-11.679688-85.394532-32.890626-12.308593-11.132812-22.191406-24.421874-29.261718-39.078124l1.054687 10.523437c2.835938 28.214844 15.980469 54.230469 37.007813 73.257813 21.03125 19.023437 48.234375 29.5 76.59375 29.5s55.558594-10.476563 76.589844-29.5c21.03125-19.027344 34.175781-45.042969 37.011718-73.257813l1.054688-10.523437c-7.070313 14.65625-16.953125 27.945312-29.261719 39.078124zm0 0" fill="#d8d1d7"/><path d="m60.089844 406.910156c-4.15625 0-7.523438-3.367187-7.523438-7.523437v-20.996094c0-7.433594-6.042968-13.476563-13.476562-13.476563-7.429688 0-13.476563 6.042969-13.476563 13.476563v20.996094c0 4.15625-3.367187 7.523437-7.519531 7.523437-4.15625 0-7.523438-3.367187-7.523438-7.523437v-20.996094c0-15.726563 12.792969-28.519531 28.519532-28.519531 15.726562 0 28.519531 12.792968 28.519531 28.519531v20.996094c0 4.15625-3.367187 7.523437-7.519531 7.523437zm0 0" fill="#8c808a"/><path d="m253.007812 200.914062h-117.527343c-4.152344 0-7.519531 3.363282-7.519531 7.519532v76.460937c0 4.15625 3.367187 7.523438 7.519531 7.523438h117.527343c4.15625 0 7.523438-3.367188 7.523438-7.523438v-76.460937c0-4.15625-3.367188-7.519532-7.523438-7.519532zm0 0" fill="#60b8ff"/><path d="m127.960938 257.820312v27.074219c0 4.15625 3.367187 7.523438 7.519531 7.523438h117.527343c4.15625 0 7.523438-3.367188 7.523438-7.523438v-27.074219zm0 0" fill="#22a7ff"/></svg>